<svg width="176.587" height="36.28" viewBox="0 0 176.587 36.28" xmlns="http://www.w3.org/2000/svg"><g id="svgGroup" stroke-linecap="round" fill-rule="evenodd" font-size="9pt" stroke="#000" stroke-width="0.25mm" fill="#000" style="stroke:#000;stroke-width:0.25mm;fill:#000"><path d="M 12.573 9.863 L 12.573 35.547 L 17.114 35.547 L 17.114 17.383 A 8.474 8.474 0 0 1 19.117 14.758 A 8.153 8.153 0 0 1 19.617 14.355 A 5.931 5.931 0 0 1 23.031 13.188 A 7.353 7.353 0 0 1 23.291 13.184 A 7.035 7.035 0 0 1 24.791 13.334 Q 25.747 13.542 26.464 14.041 A 4.035 4.035 0 0 1 27.026 14.514 Q 28.295 15.795 28.343 18.692 A 13.902 13.902 0 0 1 28.345 18.921 L 28.345 35.547 L 32.886 35.547 L 32.886 17.383 A 8.474 8.474 0 0 1 34.889 14.758 A 8.153 8.153 0 0 1 35.388 14.355 A 5.931 5.931 0 0 1 38.802 13.188 A 7.353 7.353 0 0 1 39.063 13.184 A 7.035 7.035 0 0 1 40.562 13.334 Q 41.519 13.542 42.235 14.041 A 4.035 4.035 0 0 1 42.798 14.514 Q 44.067 15.795 44.114 18.692 A 13.902 13.902 0 0 1 44.116 18.921 L 44.116 35.547 L 48.657 35.547 L 48.657 18.97 A 18.783 18.783 0 0 0 48.489 16.361 Q 48.043 13.19 46.411 11.585 A 7.38 7.38 0 0 0 43.021 9.712 Q 41.725 9.375 40.161 9.375 A 10.73 10.73 0 0 0 37.769 9.631 A 8.623 8.623 0 0 0 35.669 10.4 A 8.699 8.699 0 0 0 33.718 11.822 Q 32.872 12.627 32.104 13.721 L 31.958 13.721 A 7.751 7.751 0 0 0 30.973 12.01 A 5.941 5.941 0 0 0 29.102 10.4 A 8.194 8.194 0 0 0 26.62 9.544 A 11.139 11.139 0 0 0 24.634 9.375 A 9.477 9.477 0 0 0 21.71 9.817 A 8.62 8.62 0 0 0 20.325 10.4 A 10.295 10.295 0 0 0 17.017 13.159 L 16.87 13.159 L 16.675 9.863 L 12.573 9.863 Z M 78.394 9.863 L 78.394 26.44 A 18.294 18.294 0 0 0 78.566 29.049 Q 79.024 32.22 80.701 33.826 A 7.741 7.741 0 0 0 84.512 35.797 A 11.282 11.282 0 0 0 86.89 36.035 A 10.217 10.217 0 0 0 89.91 35.599 A 9.225 9.225 0 0 0 91.345 35.022 A 10.053 10.053 0 0 0 94.751 32.251 L 94.897 32.251 L 95.093 35.547 L 99.194 35.547 L 99.194 9.863 L 94.653 9.863 L 94.653 28.027 A 8.049 8.049 0 0 1 92.065 31.055 A 6.421 6.421 0 0 1 88.502 32.222 A 7.885 7.885 0 0 1 88.232 32.227 A 7.78 7.78 0 0 1 86.691 32.083 Q 85.765 31.896 85.052 31.464 A 4.188 4.188 0 0 1 84.314 30.896 A 3.903 3.903 0 0 1 83.402 29.479 Q 82.935 28.281 82.935 26.493 A 13.88 13.88 0 0 1 82.935 26.489 L 82.935 9.863 L 78.394 9.863 Z M 106.958 0 L 106.958 35.547 L 119.409 35.547 A 17.04 17.04 0 0 0 122.947 35.2 Q 125.313 34.698 127.114 33.469 A 10.297 10.297 0 0 0 127.917 32.861 A 8.755 8.755 0 0 0 130.974 27.326 A 12.887 12.887 0 0 0 131.128 25.293 A 11.148 11.148 0 0 0 130.898 22.961 Q 130.564 21.401 129.748 20.215 A 6.791 6.791 0 0 0 129.419 19.775 Q 127.71 17.676 125.024 16.895 L 125.024 16.797 A 8.221 8.221 0 0 0 128.711 14.185 A 6.436 6.436 0 0 0 129.982 11.506 Q 130.2 10.545 130.2 9.424 A 12.229 12.229 0 0 0 129.915 6.691 Q 129.497 4.87 128.469 3.568 A 6.998 6.998 0 0 0 127.124 2.271 A 10.647 10.647 0 0 0 123.744 0.643 Q 122.295 0.221 120.565 0.076 A 22.603 22.603 0 0 0 118.677 0 L 106.958 0 Z M 56.421 9.863 L 52.026 9.863 L 61.792 35.547 L 65.259 35.547 L 75.024 9.863 L 70.728 9.863 L 64.575 27.002 Q 64.233 27.979 64.001 28.833 A 39.295 39.295 0 0 0 63.894 29.237 Q 63.78 29.675 63.71 29.993 A 10.085 10.085 0 0 0 63.672 30.176 L 63.525 30.176 A 10.913 10.913 0 0 0 63.468 29.909 Q 63.37 29.474 63.196 28.833 Q 62.964 27.979 62.622 27.002 L 56.421 9.863 Z M 135.645 22.314 L 135.645 23.096 A 16.749 16.749 0 0 0 136.168 27.389 A 12.47 12.47 0 0 0 138.94 32.593 A 10.878 10.878 0 0 0 146.241 36.206 A 15.208 15.208 0 0 0 147.754 36.279 A 13.371 13.371 0 0 0 151.726 35.717 A 10.591 10.591 0 0 0 156.567 32.593 A 12.746 12.746 0 0 0 159.617 26.115 A 17.766 17.766 0 0 0 159.863 23.096 L 159.863 22.314 A 16.749 16.749 0 0 0 159.34 18.021 A 12.47 12.47 0 0 0 156.567 12.817 A 10.878 10.878 0 0 0 149.267 9.204 A 15.208 15.208 0 0 0 147.754 9.131 A 13.371 13.371 0 0 0 143.782 9.693 A 10.591 10.591 0 0 0 138.94 12.817 A 12.746 12.746 0 0 0 135.891 19.296 A 17.766 17.766 0 0 0 135.645 22.314 Z M 166.528 11.963 L 166.528 29.199 A 12.705 12.705 0 0 0 166.668 31.153 Q 167.012 33.355 168.201 34.57 A 5.579 5.579 0 0 0 171.338 36.171 A 7.973 7.973 0 0 0 172.681 36.279 A 11.867 11.867 0 0 0 173.992 36.21 A 9.444 9.444 0 0 0 174.927 36.06 Q 175.647 35.905 176.175 35.715 A 5.199 5.199 0 0 0 176.587 35.547 L 176.587 31.836 A 11.445 11.445 0 0 1 175.451 32.178 A 10.289 10.289 0 0 1 175.244 32.227 A 6.171 6.171 0 0 1 173.901 32.373 A 4.636 4.636 0 0 1 173.11 32.31 Q 172.687 32.237 172.355 32.077 A 1.997 1.997 0 0 1 171.753 31.641 Q 171.112 30.954 171.072 29.408 A 8.098 8.098 0 0 1 171.069 29.199 L 171.069 3.516 L 166.528 3.516 L 166.528 11.23 L 166.528 11.963 Z M 0 0 L 0 35.547 L 4.688 35.547 L 4.688 0 L 0 0 Z M 140.283 23.096 L 140.283 22.314 A 13.981 13.981 0 0 1 140.63 19.122 A 10.384 10.384 0 0 1 142.163 15.588 A 6.087 6.087 0 0 1 146.626 12.911 A 8.954 8.954 0 0 1 147.754 12.842 A 7.944 7.944 0 0 1 150.089 13.166 A 5.976 5.976 0 0 1 153.345 15.588 Q 155.225 18.335 155.225 22.314 L 155.225 23.096 A 13.981 13.981 0 0 1 154.878 26.288 A 10.384 10.384 0 0 1 153.345 29.822 A 6.087 6.087 0 0 1 148.882 32.5 A 8.954 8.954 0 0 1 147.754 32.568 A 7.944 7.944 0 0 1 145.419 32.244 A 5.976 5.976 0 0 1 142.163 29.822 Q 140.283 27.075 140.283 23.096 Z M 119.409 31.689 L 111.548 31.689 L 111.548 18.945 L 119.409 18.945 Q 123.071 18.945 124.78 20.654 A 5.684 5.684 0 0 1 126.322 23.581 A 8.34 8.34 0 0 1 126.489 25.293 A 8.133 8.133 0 0 1 126.259 27.283 A 5.719 5.719 0 0 1 124.78 29.956 A 5.191 5.191 0 0 1 122.83 31.171 Q 122.01 31.471 120.995 31.597 A 12.855 12.855 0 0 1 119.409 31.689 Z M 118.677 15.137 L 111.548 15.137 L 111.548 3.857 L 118.677 3.857 Q 122.043 3.857 123.676 5.074 A 3.965 3.965 0 0 1 123.95 5.298 A 4.667 4.667 0 0 1 125.384 7.778 A 7.178 7.178 0 0 1 125.562 9.424 A 7.202 7.202 0 0 1 125.362 11.167 A 4.92 4.92 0 0 1 123.95 13.623 A 4.731 4.731 0 0 1 122.378 14.575 Q 120.908 15.137 118.677 15.137 Z M 161.938 9.863 L 161.938 13.33 L 176.587 13.33 L 176.587 9.863 L 161.938 9.863 Z" vector-effect="non-scaling-stroke"/></g></svg>